<svg xmlns="http://www.w3.org/2000/svg" xmlns:xlink="http://www.w3.org/1999/xlink" viewBox="0 0 1920 901" style="margin:auto;background:#f1f2f3;display:block;z-index:1;position:relative"><g><path id="a" fill="none" stroke="none" d="M1202.923 651.511c0 29.704-7.268 8.532-15.8 8.532s-15.8 21.172-15.8-8.532 7.268-8.532 15.8-8.532 15.8-21.171 15.8 8.532z"/><circle r="5.589" fill="#e1cade" opacity=".9"><animateMotion begin="-8.831683345915668s" dur="10s" repeatCount="indefinite"><mpath xlink:href="#a"/></animateMotion></circle><path id="b" fill="none" stroke="none" d="M1826.177 121.294c0 28.436-6.958 8.168-15.126 8.168s-15.126 20.268-15.126-8.168 6.958-8.168 15.126-8.168 15.126-20.27 15.126 8.168z"/><circle r="6.616" fill="#87baab" opacity=".9"><animateMotion begin="-6.915685396408124s" dur="10s" repeatCount="indefinite"><mpath xlink:href="#b"/></animateMotion></circle><path id="c" fill="none" stroke="none" d="M1479.45 61.555c0 31.821-7.786 9.14-16.926 9.14s-16.926 22.681-16.926-9.14 7.786-9.14 16.926-9.14 16.926-22.68 16.926 9.14z"/><circle r="4.514" fill="#347fc4" opacity=".9"><animateMotion begin="-1.8248152626922365s" dur="10s" repeatCount="indefinite"><mpath xlink:href="#c"/></animateMotion></circle><path id="d" fill="none" stroke="none" d="M689.432 613.268c0 36.465-8.922 10.474-19.396 10.474s-19.396 25.99-19.396-10.474 8.922-10.474 19.396-10.474 19.396-25.99 19.396 10.474z"/><circle r="4.142" fill="#87baab" opacity=".9"><animateMotion begin="-5.525185442367411s" dur="10s" repeatCount="indefinite"><mpath xlink:href="#d"/></animateMotion></circle><path id="e" fill="none" stroke="none" d="M382.615 340.585c0 27.695-6.776 7.955-14.73 7.955s-14.732 19.74-14.732-7.955 6.776-7.955 14.731-7.955 14.731-19.74 14.731 7.955z"/><circle r="4.648" fill="#87baab" opacity=".9"><animateMotion begin="-2.9456461765901576s" dur="10s" repeatCount="indefinite"><mpath xlink:href="#e"/></animateMotion></circle><path id="f" fill="none" stroke="none" d="M273.038 478.325c0 19.151-4.686 5.5-10.187 5.5s-10.187 13.651-10.187-5.5 4.686-5.501 10.187-5.501 10.187-13.65 10.187 5.5z"/><circle r="6.92" fill="#a95a63" opacity=".9"><animateMotion begin="-3.8474211476275477s" dur="10s" repeatCount="indefinite"><mpath xlink:href="#f"/></animateMotion></circle><path id="g" fill="none" stroke="none" d="M1288.493 309.994c0 25.56-6.254 7.342-13.596 7.342s-13.596 18.219-13.596-7.342 6.254-7.342 13.596-7.342 13.596-18.219 13.596 7.342z"/><circle r="7.313" fill="#347fc4" opacity=".9"><animateMotion begin="-3.8809533347346625s" dur="10s" repeatCount="indefinite"><mpath xlink:href="#g"/></animateMotion></circle><path id="h" fill="none" stroke="none" d="M837.589 253.148c0 27.762-6.793 7.974-14.768 7.974s-14.767 19.788-14.767-7.974 6.793-7.975 14.767-7.975 14.768-19.788 14.768 7.975z"/><circle r="6.06" fill="#e1cade" opacity=".9"><animateMotion begin="-1.978887431730334s" dur="10s" repeatCount="indefinite"><mpath xlink:href="#h"/></animateMotion></circle><path id="i" fill="none" stroke="none" d="M88.025 736.18c0 23.59-5.772 6.777-12.548 6.777s-12.548 16.814-12.548-6.776 5.772-6.776 12.548-6.776 12.548-16.814 12.548 6.776z"/><circle r="4.153" fill="#87baab" opacity=".9"><animateMotion begin="-0.9345088133337343s" dur="10s" repeatCount="indefinite"><mpath xlink:href="#i"/></animateMotion></circle><path id="j" fill="none" stroke="none" d="M1351.501 537.386c0 21.852-5.347 6.276-11.623 6.276s-11.624 15.576-11.624-6.276 5.347-6.277 11.624-6.277 11.623-15.576 11.623 6.277z"/><circle r="5.21" fill="#87baab" opacity=".9"><animateMotion begin="-0.7114460698016178s" dur="10s" repeatCount="indefinite"><mpath xlink:href="#j"/></animateMotion></circle><path id="k" fill="none" stroke="none" d="M1368.066 373.383c0 27.809-6.804 7.988-14.792 7.988s-14.792 19.82-14.792-7.988 6.804-7.987 14.792-7.987 14.792-19.822 14.792 7.987z"/><circle r="5.506" fill="#1f2232" opacity=".9"><animateMotion begin="-6.763139294033833s" dur="10s" repeatCount="indefinite"><mpath xlink:href="#k"/></animateMotion></circle><path id="l" fill="none" stroke="none" d="M1519.05 103.88c0 28.09-6.873 8.068-14.94 8.068s-14.942 20.022-14.942-8.068 6.873-8.068 14.941-8.068 14.941-20.021 14.941 8.068z"/><circle r="7.476" fill="#e1cade" opacity=".9"><animateMotion begin="-8.887230387323337s" dur="10s" repeatCount="indefinite"><mpath xlink:href="#l"/></animateMotion></circle><path id="m" fill="none" stroke="none" d="M1466.853 641.637c0 28.87-7.064 8.293-15.357 8.293s-15.356 20.577-15.356-8.293 7.064-8.292 15.356-8.292 15.357-20.577 15.357 8.292z"/><circle r="5.931" fill="#87baab" opacity=".9"><animateMotion begin="-7.113315765188961s" dur="10s" repeatCount="indefinite"><mpath xlink:href="#m"/></animateMotion></circle><path id="n" fill="none" stroke="none" d="M1408.11 806.63c0 19.985-4.89 5.74-10.63 5.74s-10.631 14.245-10.631-5.74 4.89-5.74 10.63-5.74 10.63-14.245 10.63 5.74z"/><circle r="4.171" fill="#347fc4" opacity=".9"><animateMotion begin="-3.9769342238108707s" dur="10s" repeatCount="indefinite"><mpath xlink:href="#n"/></animateMotion></circle><path id="o" fill="none" stroke="none" d="M1094.635 640.974c0 36.032-8.816 10.35-19.166 10.35s-19.166 25.682-19.166-10.35 8.817-10.35 19.166-10.35 19.166-25.682 19.166 10.35z"/><circle r="7.217" fill="#a95a63" opacity=".9"><animateMotion begin="-4.1962973211756704s" dur="10s" repeatCount="indefinite"><mpath xlink:href="#o"/></animateMotion></circle><path id="p" fill="none" stroke="none" d="M257.248 198.406c0 19.736-4.83 5.669-10.498 5.669s-10.498 14.067-10.498-5.669 4.83-5.669 10.498-5.669 10.498-14.066 10.498 5.67z"/><circle r="5.659" fill="#347fc4" opacity=".9"><animateMotion begin="-5.817250627076129s" dur="10s" repeatCount="indefinite"><mpath xlink:href="#p"/></animateMotion></circle><path id="q" fill="none" stroke="none" d="M722.766 556.318c0 26.865-6.573 7.717-14.29 7.717s-14.29 19.148-14.29-7.717 6.573-7.716 14.29-7.716 14.29-19.149 14.29 7.716z"/><circle r="5.536" fill="#87baab" opacity=".9"><animateMotion begin="-3.801049746008427s" dur="10s" repeatCount="indefinite"><mpath xlink:href="#q"/></animateMotion></circle><path id="r" fill="none" stroke="none" d="M915.687 614.315c0 29.662-7.258 8.52-15.778 8.52s-15.778 21.142-15.778-8.52 7.258-8.52 15.778-8.52 15.778-21.142 15.778 8.52z"/><circle r="6.611" fill="#87baab" opacity=".9"><animateMotion begin="-3.361952969625779s" dur="10s" repeatCount="indefinite"><mpath xlink:href="#r"/></animateMotion></circle><path id="s" fill="none" stroke="none" d="M1676.376 782.718c0 27.115-6.634 7.788-14.423 7.788s-14.423 19.327-14.423-7.788 6.635-7.789 14.423-7.789 14.423-19.326 14.423 7.789z"/><circle r="7.129" fill="#87baab" opacity=".9"><animateMotion begin="-8.98179995036697s" dur="10s" repeatCount="indefinite"><mpath xlink:href="#s"/></animateMotion></circle><path id="t" fill="none" stroke="none" d="M873.198 606.951c0 29.122-7.125 8.365-15.49 8.365s-15.49 20.757-15.49-8.365 7.125-8.364 15.49-8.364 15.49-20.757 15.49 8.364z"/><circle r="5.56" fill="#e1cade" opacity=".9"><animateMotion begin="-5.139822200251169s" dur="10s" repeatCount="indefinite"><mpath xlink:href="#t"/></animateMotion></circle><path id="u" fill="none" stroke="none" d="M327.839 670.597c0 23.099-5.652 6.635-12.287 6.635s-12.286 16.464-12.286-6.635 5.652-6.635 12.286-6.635 12.287-16.463 12.287 6.635z"/><circle r="5.458" fill="#a95a63" opacity=".9"><animateMotion begin="-5.364205984116033s" dur="10s" repeatCount="indefinite"><mpath xlink:href="#u"/></animateMotion></circle><path id="v" fill="none" stroke="none" d="M802.095 32.827c0 37.046-9.065 10.64-19.706 10.64s-19.705 26.406-19.705-10.64 9.064-10.641 19.705-10.641 19.706-26.406 19.706 10.64z"/><circle r="4.082" fill="#e1cade" opacity=".9"><animateMotion begin="-6.843986284198847s" dur="10s" repeatCount="indefinite"><mpath xlink:href="#v"/></animateMotion></circle><path id="w" fill="none" stroke="none" d="M1047.447 386.523c0 36.308-8.883 10.429-19.312 10.429s-19.313 25.879-19.313-10.43 8.884-10.428 19.313-10.428 19.312-25.879 19.312 10.429z"/><circle r="6.234" fill="#a95a63" opacity=".9"><animateMotion begin="-4.0453976543078625s" dur="10s" repeatCount="indefinite"><mpath xlink:href="#w"/></animateMotion></circle><path id="x" fill="none" stroke="none" d="M577.435 161.842c0 33.078-8.094 9.501-17.595 9.501s-17.595 23.577-17.595-9.501 8.094-9.501 17.595-9.501 17.595-23.577 17.595 9.5z"/><circle r="6.859" fill="#1f2232" opacity=".9"><animateMotion begin="-0.6026773601505031s" dur="10s" repeatCount="indefinite"><mpath xlink:href="#x"/></animateMotion></circle><path id="y" fill="none" stroke="none" d="M316.59 142.627c0 23.211-5.68 6.667-12.346 6.667s-12.347 16.544-12.347-6.667 5.68-6.667 12.347-6.667 12.346-16.545 12.346 6.667z"/><circle r="5.614" fill="#a95a63" opacity=".9"><animateMotion begin="-9.25959811744503s" dur="10s" repeatCount="indefinite"><mpath xlink:href="#y"/></animateMotion></circle><path id="z" fill="none" stroke="none" d="M840.75 134.268c0 31.457-7.697 9.036-16.732 9.036s-16.733 22.42-16.733-9.036 7.697-9.035 16.733-9.035 16.732-22.421 16.732 9.035z"/><circle r="6.215" fill="#1f2232" opacity=".9"><animateMotion begin="-8.640939686759133s" dur="10s" repeatCount="indefinite"><mpath xlink:href="#z"/></animateMotion></circle><path id="A" fill="none" stroke="none" d="M1167.763 725.574c0 35.328-8.644 10.147-18.792 10.147s-18.791 25.181-18.791-10.147 8.644-10.148 18.791-10.148 18.792-25.18 18.792 10.148z"/><circle r="6.315" fill="#87baab" opacity=".9"><animateMotion begin="-7.451636683466926s" dur="10s" repeatCount="indefinite"><mpath xlink:href="#A"/></animateMotion></circle><path id="B" fill="none" stroke="none" d="M659.536 409.753c0 25.936-6.346 7.45-13.795 7.45s-13.796 18.486-13.796-7.45 6.346-7.45 13.796-7.45 13.795-18.485 13.795 7.45z"/><circle r="7.145" fill="#87baab" opacity=".9"><animateMotion begin="-4.124311545777697s" dur="10s" repeatCount="indefinite"><mpath xlink:href="#B"/></animateMotion></circle><path id="C" fill="none" stroke="none" d="M1209.14 818.006c0 19.786-4.841 5.683-10.524 5.683s-10.525 14.103-10.525-5.683 4.842-5.683 10.525-5.683 10.524-14.103 10.524 5.683z"/><circle r="5.327" fill="#1f2232" opacity=".9"><animateMotion begin="-7.991586601138709s" dur="10s" repeatCount="indefinite"><mpath xlink:href="#C"/></animateMotion></circle><path id="D" fill="none" stroke="none" d="M603.263 71.873c0 22.917-5.607 6.582-12.19 6.582s-12.19 16.335-12.19-6.582 5.607-6.583 12.19-6.583 12.19-16.335 12.19 6.583z"/><circle r="4.523" fill="#347fc4" opacity=".9"><animateMotion begin="-8.887738875370959s" dur="10s" repeatCount="indefinite"><mpath xlink:href="#D"/></animateMotion></circle></g></svg>