<?xml version="1.0" encoding="UTF-8"?>
<svg id="Layer_2" data-name="Layer 2" xmlns="http://www.w3.org/2000/svg" viewBox="0 0 36 36">
  <defs>
    <style>
      .cls-1 {
        fill: #c27d85;
      }

      .cls-2 {
        fill: #a95a63;
      }
    </style>
  </defs>
  <g id="Layer_2-2" data-name="Layer 2">
    <path class="cls-2" d="M18,6L6,18l7.8,7.8c1.66,1.66,1.66,4.34,0,6L0,18,18,0c.83,.83,1.24,1.92,1.24,3s-.41,2.17-1.24,3Z"/>
    <path class="cls-1" d="M36,18l-18,18c-.83-.83-1.24-1.92-1.24-3s.41-2.17,1.24-3l4.8-4.8-4.2-4.2c-1.66-1.66-1.66-4.34,0-6l7.2,7.2,4.2-4.2-7.8-7.8c-1.66-1.66-1.66-4.34,0-6l13.8,13.8Z"/>
  </g>
</svg>